<?xml version="1.0" encoding="utf-8"?>
<!-- Generator: Adobe Illustrator 24.0.0, SVG Export Plug-In . SVG Version: 6.00 Build 0)  -->
<svg version="1.1" id="Layer_1" xmlns="http://www.w3.org/2000/svg" xmlns:xlink="http://www.w3.org/1999/xlink" x="0px" y="0px"
	 viewBox="0 0 28.35 28.35" style="enable-background:new 0 0 28.35 28.35;" xml:space="preserve">
<style type="text/css">
	.st0{fill:#717070;}
</style>
<g>
	<path class="st0" d="M7.62,8.47h8.32c0.55,0,1-0.45,1-1s-0.45-1-1-1H7.62c-0.55,0-1,0.45-1,1S7.06,8.47,7.62,8.47z"/>
	<path class="st0" d="M7.62,12.88h13.12c0.55,0,1-0.45,1-1s-0.45-1-1-1H7.62c-0.55,0-1,0.45-1,1S7.06,12.88,7.62,12.88z"/>
	<path class="st0" d="M7.62,17.47h8.32c0.55,0,1-0.45,1-1c0-0.55-0.45-1-1-1H7.62c-0.55,0-1,0.45-1,1
		C6.62,17.02,7.06,17.47,7.62,17.47z"/>
	<path class="st0" d="M20.73,19.88H7.62c-0.55,0-1,0.45-1,1s0.45,1,1,1h13.12c0.55,0,1-0.45,1-1S21.28,19.88,20.73,19.88z"/>
</g>
</svg>
