<?xml version="1.0" encoding="utf-8"?>
<!-- Generator: Adobe Illustrator 24.0.0, SVG Export Plug-In . SVG Version: 6.00 Build 0)  -->
<svg version="1.1" id="Layer_1" xmlns="http://www.w3.org/2000/svg" xmlns:xlink="http://www.w3.org/1999/xlink" x="0px" y="0px"
	 viewBox="0 0 25.51 25.51" style="enable-background:new 0 0 25.51 25.51;" xml:space="preserve">
<style type="text/css">
	.st0{fill:#717070;}
</style>
<g id="calendar" transform="translate(0 -20)">
	<g id="Grupo_630" transform="translate(0 20)">
		<g id="Grupo_629" transform="translate(0 0)">
			<path id="Caminho_64" class="st0" d="M21.06,5.83h-3.45V5.13c0-0.39-0.31-0.7-0.7-0.7c-0.39,0-0.7,0.31-0.7,0.7v0.71H9.38V5.13
				c0-0.39-0.31-0.7-0.7-0.7c-0.39,0-0.7,0.31-0.7,0.7l0,0v0.71H4.53c-0.39,0-0.7,0.31-0.7,0.7c0,0,0,0,0,0v13.71
				c0,0.39,0.31,0.7,0.7,0.7c0,0,0,0,0,0h16.52c0.39,0,0.7-0.31,0.7-0.7l0,0V6.53C21.76,6.15,21.44,5.83,21.06,5.83L21.06,5.83z
				 M20.36,19.55H5.23V7.23h2.75v0.71c0,0.39,0.31,0.7,0.7,0.7s0.7-0.31,0.7-0.7V7.23h6.83v0.71c0,0.39,0.31,0.7,0.7,0.7
				c0.39,0,0.7-0.31,0.7-0.7c0,0,0,0,0,0V7.23h2.75L20.36,19.55z"/>
		</g>
	</g>
	<g id="Grupo_632" transform="translate(8.016 26.579)">
		<g id="Grupo_631" transform="translate(0 0)">
			<circle id="Elipse_7" class="st0" cx="4.78" cy="5.37" r="0.94"/>
		</g>
	</g>
	<g id="Grupo_634" transform="translate(8.016 30.692)">
		<g id="Grupo_633">
			<circle id="Elipse_8" class="st0" cx="4.78" cy="5.37" r="0.94"/>
		</g>
	</g>
	<g id="Grupo_636" transform="translate(3.903 26.579)">
		<g id="Grupo_635" transform="translate(0 0)">
			<circle id="Elipse_9" class="st0" cx="4.78" cy="5.37" r="0.94"/>
		</g>
	</g>
	<g id="Grupo_638" transform="translate(12.129 26.579)">
		<g id="Grupo_637" transform="translate(0 0)">
			<circle id="Elipse_10" class="st0" cx="4.78" cy="5.37" r="0.94"/>
		</g>
	</g>
	<g id="Grupo_640" transform="translate(3.903 30.692)">
		<g id="Grupo_639">
			<circle id="Elipse_11" class="st0" cx="4.78" cy="5.37" r="0.94"/>
		</g>
	</g>
	<g id="Grupo_642" transform="translate(12.129 30.692)">
		<g id="Grupo_641">
			<circle id="Elipse_12" class="st0" cx="4.78" cy="5.37" r="0.94"/>
		</g>
	</g>
</g>
</svg>
