<?xml version="1.0" encoding="utf-8"?>
<!-- Generator: Adobe Illustrator 24.0.0, SVG Export Plug-In . SVG Version: 6.00 Build 0)  -->
<svg version="1.1" id="Layer_1" xmlns="http://www.w3.org/2000/svg" xmlns:xlink="http://www.w3.org/1999/xlink" x="0px" y="0px"
	 viewBox="0 0 39.69 39.69" style="enable-background:new 0 0 39.69 39.69;" xml:space="preserve">
<style type="text/css">
	.st0{fill:#010202;}
	.st1{fill:none;}
</style>
<path id="shopping-cart-solid" class="st0" d="M31.49,22.04l2.29-10.09c0.14-0.63-0.25-1.25-0.87-1.4
	c-0.09-0.02-0.17-0.03-0.26-0.03H13.6l-0.44-2.17c-0.11-0.54-0.59-0.93-1.14-0.93H7.04c-0.64,0-1.16,0.52-1.16,1.16c0,0,0,0,0,0
	v0.78c0,0.64,0.52,1.16,1.16,1.16h3.39l3.41,16.66c-1.3,0.75-1.75,2.41-1,3.71c0.75,1.3,2.41,1.75,3.71,1c1.3-0.75,1.75-2.41,1-3.71
	c-0.12-0.22-0.28-0.41-0.46-0.59h10.17c-1.07,1.05-1.09,2.77-0.04,3.84c1.05,1.07,2.77,1.09,3.84,0.04
	c1.07-1.05,1.09-2.77,0.04-3.84c-0.22-0.22-0.47-0.41-0.76-0.54l0.27-1.18c0.15-0.63-0.24-1.25-0.87-1.4
	c-0.09-0.02-0.17-0.03-0.26-0.03H16.45l-0.32-1.55h14.22C30.9,22.95,31.37,22.57,31.49,22.04z"/>
<rect class="st1" width="39.69" height="39.69"/>
</svg>
