<?xml version="1.0" encoding="utf-8"?>
<!-- Generator: Adobe Illustrator 24.0.0, SVG Export Plug-In . SVG Version: 6.00 Build 0)  -->
<svg version="1.1" id="Layer_1" xmlns="http://www.w3.org/2000/svg" xmlns:xlink="http://www.w3.org/1999/xlink" x="0px" y="0px"
	 viewBox="0 0 36.85 36.85" style="enable-background:new 0 0 36.85 36.85;" xml:space="preserve">
<style type="text/css">
	.st0{fill:#FFFFFF;}
</style>
<path id="Caminho_139" class="st0" d="M27.95,25.88l-9.52,9.6l-9.52-9.6c-5.26-5.3-5.26-13.9,0-19.2s13.79-5.3,19.05,0
	S33.21,20.57,27.95,25.88C27.95,25.88,27.95,25.88,27.95,25.88L27.95,25.88z M18.43,22.31c3.31,0,5.99-2.7,5.99-6.03
	s-2.68-6.03-5.99-6.03s-5.99,2.7-5.99,6.03l0,0C12.44,19.61,15.12,22.31,18.43,22.31z M18.43,19.29c-1.65,0-2.99-1.35-2.99-3.02
	c0-1.67,1.34-3.02,2.99-3.02c1.65,0,2.99,1.35,2.99,3.02C21.42,17.94,20.08,19.29,18.43,19.29L18.43,19.29L18.43,19.29z"/>
</svg>
