<?xml version="1.0" encoding="utf-8"?>
<!-- Generator: Adobe Illustrator 24.0.0, SVG Export Plug-In . SVG Version: 6.00 Build 0)  -->
<svg version="1.1" id="Layer_1" xmlns="http://www.w3.org/2000/svg" xmlns:xlink="http://www.w3.org/1999/xlink" x="0px" y="0px"
	 viewBox="0 0 25.51 25.51" style="enable-background:new 0 0 25.51 25.51;" xml:space="preserve">
<style type="text/css">
	.st0{fill:#010202;}
</style>
<g id="trash" transform="translate(-17.066)">
	<g id="Grupo_1189" transform="translate(17.066)">
		<g id="Grupo_1188" transform="translate(0)">
			<path id="Caminho_324" class="st0" d="M21.27,6h-4.72V5.32c0-1.12-0.91-2.02-2.02-2.02c0,0,0,0,0,0h-2.7
				C10.7,3.3,9.8,4.21,9.8,5.32l0,0V6H5.07C4.7,5.99,4.39,6.28,4.37,6.65c-0.01,0.37,0.28,0.69,0.65,0.7c0.02,0,0.03,0,0.05,0h0.73
				L7.1,21.58c0.03,0.35,0.33,0.61,0.67,0.61h10.8c0.35,0,0.64-0.26,0.67-0.61l1.29-14.23h0.73c0.37,0.01,0.69-0.28,0.7-0.65
				c0.01-0.37-0.28-0.69-0.65-0.7C21.3,6,21.28,6,21.27,6L21.27,6z M11.15,5.32c0-0.37,0.3-0.67,0.67-0.68h2.7
				c0.37,0,0.67,0.3,0.67,0.68V6h-4.05V5.32z M17.95,20.84H8.39L7.17,7.34h12.01L17.95,20.84z"/>
		</g>
	</g>
	<g id="Grupo_1191" transform="translate(21.788 5.396)">
		<g id="Grupo_1190" transform="translate(0)">
			<path id="Caminho_325" class="st0" d="M6.43,13.38L6.43,13.38L5.75,3.93C5.72,3.56,5.4,3.28,5.03,3.31S4.37,3.66,4.4,4.03l0,0
				l0.68,9.45c0.03,0.35,0.32,0.63,0.68,0.63H5.8C6.17,14.08,6.45,13.76,6.43,13.38C6.43,13.38,6.43,13.38,6.43,13.38z"/>
		</g>
	</g>
	<g id="Grupo_1193" transform="translate(25.163 5.398)">
		<g id="Grupo_1192" transform="translate(0)">
			<path id="Caminho_326" class="st0" d="M5.07,3.3C4.7,3.3,4.4,3.6,4.4,3.98l0,0v9.45c0,0.37,0.3,0.68,0.68,0.68
				s0.68-0.3,0.68-0.68V3.98C5.75,3.6,5.45,3.3,5.07,3.3L5.07,3.3z"/>
		</g>
	</g>
	<g id="Grupo_1195" transform="translate(27.86 5.396)">
		<g id="Grupo_1194">
			<path id="Caminho_327" class="st0" d="M5.8,3.3C5.43,3.28,5.1,3.56,5.08,3.93c0,0,0,0,0,0L4.4,13.38
				c-0.03,0.37,0.25,0.69,0.62,0.72h0.05c0.35,0,0.65-0.27,0.67-0.63l0.67-9.45C6.45,3.65,6.17,3.33,5.8,3.3z"/>
		</g>
	</g>
</g>
</svg>
