<?xml version="1.0" encoding="utf-8"?>
<!-- Generator: Adobe Illustrator 24.0.0, SVG Export Plug-In . SVG Version: 6.00 Build 0)  -->
<svg version="1.1" id="Layer_1" xmlns="http://www.w3.org/2000/svg" xmlns:xlink="http://www.w3.org/1999/xlink" x="0px" y="0px"
	 viewBox="0 0 39.69 39.69" style="enable-background:new 0 0 39.69 39.69;" xml:space="preserve">
<style type="text/css">
	.st0{fill:none;}
	.st1{fill:#FFFFFF;}
</style>
<path id="Caminho_148" class="st0" d="M7.61,7.98h24v24h-24V7.98z"/>
<path id="Caminho_149" class="st1" d="M19.61,9.98c2.72,0,3.06,0.01,4.12,0.06c0.83,0.02,1.65,0.17,2.43,0.47
	c0.67,0.25,1.27,0.64,1.77,1.15c0.51,0.5,0.9,1.1,1.15,1.77c0.29,0.78,0.45,1.6,0.47,2.43c0.05,1.07,0.06,1.41,0.06,4.12
	s-0.01,3.06-0.06,4.12c-0.02,0.83-0.17,1.65-0.47,2.43c-0.52,1.34-1.58,2.41-2.92,2.92c-0.78,0.29-1.6,0.45-2.43,0.47
	c-1.07,0.05-1.4,0.06-4.12,0.06s-3.06-0.01-4.12-0.06c-0.83-0.02-1.65-0.17-2.43-0.47c-1.34-0.52-2.41-1.58-2.93-2.92
	c-0.29-0.78-0.45-1.6-0.47-2.43c-0.05-1.07-0.06-1.4-0.06-4.12s0.01-3.06,0.06-4.12c0.02-0.83,0.17-1.65,0.47-2.43
	c0.25-0.67,0.64-1.27,1.15-1.77c0.5-0.51,1.1-0.9,1.77-1.15c0.78-0.29,1.6-0.45,2.43-0.47C16.55,10,16.89,9.98,19.61,9.98z
	 M19.61,14.98c-2.76,0-5,2.24-5,5s2.24,5,5,5s5-2.24,5-5S22.37,14.98,19.61,14.98z M26.11,14.73c0-0.69-0.56-1.25-1.25-1.25
	s-1.25,0.56-1.25,1.25c0,0.69,0.56,1.25,1.25,1.25S26.11,15.42,26.11,14.73z M19.61,16.98c1.66,0,3,1.34,3,3s-1.34,3-3,3
	s-3-1.34-3-3S17.95,16.98,19.61,16.98z"/>
</svg>
