<?xml version="1.0" encoding="utf-8"?>
<!-- Generator: Adobe Illustrator 24.0.0, SVG Export Plug-In . SVG Version: 6.00 Build 0)  -->
<svg version="1.1" id="Layer_1" xmlns="http://www.w3.org/2000/svg" xmlns:xlink="http://www.w3.org/1999/xlink" x="0px" y="0px"
	 viewBox="0 0 39.69 39.69" style="enable-background:new 0 0 39.69 39.69;" xml:space="preserve">
<style type="text/css">
	.st0{fill:none;}
	.st1{fill:#010202;}
</style>
<rect class="st0" width="39.69" height="39.69"/>
<path id="search" class="st1" d="M33.63,31.4l-6.49-6.75c3.9-4.65,3.3-11.59-1.36-15.5s-11.59-3.3-15.5,1.36s-3.3,11.59,1.36,15.5
	c1.98,1.66,4.49,2.57,7.07,2.57c2.26,0.01,4.47-0.69,6.31-1.99l6.54,6.8c0.52,0.59,1.43,0.65,2.03,0.13
	c0.59-0.52,0.65-1.43,0.13-2.03C33.69,31.46,33.66,31.43,33.63,31.4z M18.72,9.44c4.49,0,8.14,3.64,8.14,8.13s-3.64,8.14-8.14,8.14
	s-8.14-3.64-8.14-8.14C10.59,13.09,14.23,9.45,18.72,9.44z"/>
</svg>
