<?xml version="1.0" encoding="utf-8"?>
<!-- Generator: Adobe Illustrator 24.0.0, SVG Export Plug-In . SVG Version: 6.00 Build 0)  -->
<svg version="1.1" id="Layer_1" xmlns="http://www.w3.org/2000/svg" xmlns:xlink="http://www.w3.org/1999/xlink" x="0px" y="0px"
	 viewBox="0 0 39.69 39.69" style="enable-background:new 0 0 39.69 39.69;" xml:space="preserve">
<style type="text/css">
	.st0{fill:#EE7528;}
</style>
<g id="Grupo_1201">
	<path id="Caminho_333" class="st0" d="M19.84,5.81c-7.75,0-14.03,6.28-14.03,14.03s6.28,14.03,14.03,14.03s14.03-6.28,14.03-14.03
		l0,0C33.87,12.1,27.59,5.82,19.84,5.81z M19.84,30.97c-6.15,0-11.13-4.98-11.13-11.13c0-6.15,4.98-11.13,11.13-11.13
		c6.15,0,11.13,4.98,11.13,11.13c0,0,0,0,0,0C30.96,25.99,25.99,30.96,19.84,30.97z"/>
	<path id="Caminho_334" class="st0" d="M22.24,19.05c-0.68-0.36-1.39-0.67-2.11-0.95c-0.41-0.16-0.8-0.38-1.15-0.65
		c-0.46-0.31-0.58-0.94-0.27-1.4c0.12-0.18,0.31-0.32,0.52-0.39c0.22-0.09,0.46-0.14,0.71-0.14c0.92-0.06,1.83,0.13,2.66,0.53
		c0.42,0.2,0.56,0.14,0.7-0.3c0.15-0.46,0.28-0.93,0.41-1.4c0.1-0.25-0.02-0.53-0.27-0.63c-0.02-0.01-0.03-0.01-0.05-0.02
		c-0.54-0.24-1.1-0.41-1.68-0.5c-0.76-0.12-0.76-0.12-0.76-0.89c-0.01-1.08-0.01-1.08-1.08-1.08c-0.16,0-0.31-0.01-0.47,0
		c-0.5,0.02-0.59,0.1-0.6,0.61c-0.01,0.23,0,0.46,0,0.68c-0.01,0.68-0.01,0.67-0.65,0.9c-1.51,0.42-2.58,1.78-2.64,3.35
		c-0.08,1.38,0.69,2.68,1.94,3.28c0.78,0.41,1.59,0.78,2.42,1.09c0.32,0.13,0.61,0.31,0.88,0.52c0.54,0.39,0.67,1.14,0.28,1.69
		c-0.14,0.2-0.34,0.35-0.57,0.44c-0.49,0.21-1.03,0.28-1.55,0.2c-0.82-0.09-1.63-0.33-2.37-0.71c-0.43-0.23-0.56-0.17-0.71,0.31
		c-0.13,0.41-0.24,0.82-0.35,1.24c-0.15,0.56-0.1,0.69,0.43,0.94c0.68,0.31,1.4,0.51,2.13,0.61c0.57,0.09,0.6,0.12,0.6,0.71
		c0,0.27,0.01,0.54,0.01,0.81c-0.04,0.26,0.15,0.51,0.41,0.54c0.04,0,0.07,0.01,0.11,0c0.4,0.01,0.8,0.01,1.2,0
		c0.25,0.02,0.48-0.17,0.5-0.42c0-0.03,0-0.06,0-0.1c0-0.37,0.02-0.74,0.01-1.11c-0.05-0.32,0.17-0.62,0.49-0.66
		c0.01,0,0.01,0,0.02,0c0.82-0.22,1.56-0.69,2.1-1.35c1.31-1.64,1.04-4.03-0.6-5.34C22.67,19.31,22.46,19.17,22.24,19.05z"/>
</g>
</svg>
