<?xml version="1.0" encoding="utf-8"?>
<!-- Generator: Adobe Illustrator 24.0.0, SVG Export Plug-In . SVG Version: 6.00 Build 0)  -->
<svg version="1.1" id="Layer_1" xmlns="http://www.w3.org/2000/svg" xmlns:xlink="http://www.w3.org/1999/xlink" x="0px" y="0px"
	 viewBox="0 0 39.69 39.69" style="enable-background:new 0 0 39.69 39.69;" xml:space="preserve">
<style type="text/css">
	.st0{fill:#A2A2A2;}
</style>
<path class="st0" d="M36.21,16.45c0-0.58-0.34-1.11-0.87-1.35L20.36,8.16c-0.4-0.19-0.87-0.19-1.27,0L4.29,15.1
	c-0.53,0.25-0.87,0.78-0.86,1.37c0,0.58,0.35,1.11,0.88,1.36l5.61,2.55v5.73c0.01,3.06,2.5,5.56,5.57,5.56h8.55
	c3.05-0.01,5.53-2.5,5.52-5.55c0-0.02,0-0.03,0-0.05v-5.64l3.72-1.67v7.99c0,0.83,0.67,1.5,1.5,1.5s1.5-0.67,1.5-1.5v-9.92
	C36.26,16.7,36.24,16.57,36.21,16.45z M24.02,28.67h-8.54c-1.41,0-2.57-1.16-2.57-2.57v-4.37l6.19,2.81
	c0.13,0.06,0.27,0.09,0.41,0.11c0.28,0.04,0.56,0.01,0.82-0.11l6.21-2.76v4.32c0,0.02,0,0.03,0,0.05
	C26.53,27.54,25.41,28.66,24.02,28.67z M19.73,21.53l-7.7-3.51c-0.05-0.02-0.1-0.03-0.14-0.04L8.5,16.44l11.22-5.27l11.37,5.27
	L19.73,21.53z"/>
</svg>
