<?xml version="1.0" encoding="utf-8"?>
<!-- Generator: Adobe Illustrator 24.0.0, SVG Export Plug-In . SVG Version: 6.00 Build 0)  -->
<svg version="1.1" id="Layer_1" xmlns="http://www.w3.org/2000/svg" xmlns:xlink="http://www.w3.org/1999/xlink" x="0px" y="0px"
	 viewBox="0 0 39.69 39.69" style="enable-background:new 0 0 39.69 39.69;" xml:space="preserve">
<style type="text/css">
	.st0{fill:none;}
	.st1{fill:#FFFFFF;}
</style>
<path id="Caminho_150" class="st0" d="M6.95,6.95h25.78v25.78H6.95V6.95z"/>
<path id="Caminho_151" class="st1" d="M30.09,13.93c0.34,1.95,0.5,3.93,0.49,5.91c0.01,1.98-0.15,3.96-0.49,5.91
	c-0.26,1.04-1.05,1.87-2.08,2.17c-1.83,0.51-8.17,0.51-8.17,0.51s-6.33,0-8.17-0.51c-1.03-0.3-1.82-1.13-2.08-2.17
	c-0.34-1.95-0.5-3.93-0.49-5.91c-0.01-1.98,0.15-3.96,0.49-5.91c0.26-1.04,1.05-1.87,2.08-2.17c1.84-0.51,8.17-0.51,8.17-0.51
	s6.33,0,8.17,0.51C29.04,12.06,29.83,12.89,30.09,13.93z M17.69,23.6l6.44-3.76l-6.44-3.76L17.69,23.6z"/>
</svg>
