<?xml version="1.0" encoding="utf-8"?>
<!-- Generator: Adobe Illustrator 24.0.0, SVG Export Plug-In . SVG Version: 6.00 Build 0)  -->
<svg version="1.1" id="Layer_1" xmlns="http://www.w3.org/2000/svg" xmlns:xlink="http://www.w3.org/1999/xlink" x="0px" y="0px"
	 viewBox="0 0 39.69 39.69" style="enable-background:new 0 0 39.69 39.69;" xml:space="preserve">
<style type="text/css">
	.st0{fill:#EE7428;}
</style>
<g>
	<path class="st0" d="M24.63,21.57h-9.55c-3.46,0-6.27,2.81-6.27,6.27v2.39c0,0.83,0.67,1.5,1.5,1.5s1.5-0.67,1.5-1.5v-2.39
		c0-1.8,1.47-3.27,3.27-3.27h9.54c1.8,0,3.27,1.47,3.27,3.27v2.39c0,0.83,0.67,1.5,1.5,1.5s1.5-0.67,1.5-1.5v-2.39
		C30.9,24.38,28.09,21.57,24.63,21.57z"/>
	<path class="st0" d="M19.86,19.79c3.46,0,6.27-2.81,6.27-6.27v-0.01c0-3.46-2.81-6.27-6.27-6.27l0,0c-3.46,0-6.27,2.81-6.27,6.27
		S16.4,19.79,19.86,19.79z M19.86,10.24L19.86,10.24c1.8,0,3.27,1.47,3.27,3.27v0.01c0,1.8-1.47,3.27-3.27,3.27
		s-3.27-1.47-3.27-3.27S18.05,10.24,19.86,10.24z"/>
</g>
</svg>
