<?xml version="1.0" encoding="utf-8"?>
<!-- Generator: Adobe Illustrator 24.0.0, SVG Export Plug-In . SVG Version: 6.00 Build 0)  -->
<svg version="1.1" id="Layer_1" xmlns="http://www.w3.org/2000/svg" xmlns:xlink="http://www.w3.org/1999/xlink" x="0px" y="0px"
	 viewBox="0 0 28.35 28.35" style="enable-background:new 0 0 28.35 28.35;" xml:space="preserve">
<style type="text/css">
	.st0{fill:#6A6A6A;}
</style>
<g id="desconto" transform="translate(0 -96)">
	<g id="Grupo_1183" transform="translate(0 96)">
		<g id="Grupo_1182">
			<path id="Caminho_322" class="st0" d="M25.65,12.08l0.59-0.1V6.63H2.11v5.35l0.59,0.1c1.15,0.2,1.93,1.29,1.74,2.45
				c-0.15,0.89-0.85,1.58-1.74,1.74l-0.59,0.1v5.35h24.14v-5.35l-0.59-0.1c-1.15-0.2-1.93-1.29-1.74-2.45
				C24.07,12.93,24.76,12.23,25.65,12.08L25.65,12.08z M24.83,17.51v2.79h-5.19v-1.15h-1.41v1.15H3.52v-2.79
				c1.84-0.65,2.81-2.67,2.15-4.51c-0.36-1.01-1.15-1.8-2.15-2.15V8.04h14.71V9.2h1.41V8.04h5.18v2.79
				c-1.84,0.65-2.81,2.67-2.15,4.51C23.03,16.36,23.82,17.15,24.83,17.51L24.83,17.51z"/>
		</g>
	</g>
	<g id="Grupo_1185" transform="translate(16.121 104.273)">
		<g id="Grupo_1184">
			<rect id="Retângulo_611" x="2.11" y="6.63" class="st0" width="1.41" height="2.83"/>
		</g>
	</g>
	<g id="Grupo_1187" transform="translate(16.121 99.983)">
		<g id="Grupo_1186">
			<rect id="Retângulo_612" x="2.11" y="6.63" class="st0" width="1.41" height="2.83"/>
		</g>
	</g>
</g>
</svg>
